<?xml version="1.0" encoding="utf-8"?>
<!-- Generator: Adobe Illustrator 27.5.0, SVG Export Plug-In . SVG Version: 6.00 Build 0)  -->
<svg version="1.1" id="Layer_1" xmlns="http://www.w3.org/2000/svg" xmlns:xlink="http://www.w3.org/1999/xlink" x="0px" y="0px"
	 viewBox="0 0 3000 3000" style="enable-background:new 0 0 3000 3000;" xml:space="preserve">
<path style="fill:#55497B;" d="M0,0h3000.002v3000.002H0V0z"/>
<path style="fill:#F6C69F;" d="M2058.599,931.799l32.206,2.021c34.438,10.553,58.427,26.285,75.624,58.94
	c20.971,39.82,19.726,94.339,6.357,136.635c-20.162,63.812-68.476,119.648-127.737,150.398c-23.83,12.366-48.141,20.602-74.54,25.5
	l0.718-3.779c2.148-8.555,5.965-17.13,9.36-25.28c0.533-1.277,1.746-5.306,2.657-6.299c1.898-2.065,13.96-4.942,17.355-6.12
	c13.289-4.614,25.904-10.942,37.74-18.519c35.107-22.474,66.273-55.887,75.44-97.685l2.016-9.272
	c7.591-35.197,2.821-78.551-15.542-110.019c-9.876-16.925-24.252-31.374-43.729-36.381l-2.08-0.513
	c-7.342-1.857-14.007-2.227-21.516-2.37l9.58-36.563c1.726-6.586,2.815-13.526,6.817-19.142L2058.599,931.799z"/>
<path style="fill:#DE9B7A;" d="M2032.929,989.057c7.509,0.144,14.174,0.513,21.516,2.37l2.08,0.513
	c19.477,5.007,33.853,19.456,43.729,36.381c18.363,31.468,23.133,74.821,15.542,110.019l-2.016,9.272
	c-9.167,41.798-40.333,75.211-75.44,97.685c-11.836,7.576-24.451,13.904-37.74,18.519c-3.396,1.178-15.457,4.055-17.355,6.12
	c-0.911,0.993-2.124,5.022-2.657,6.299c-3.396,8.151-7.213,16.726-9.36,25.28l-0.718,3.779l-11.701,2.171l34.986-156.718
	c0.987-6.39,1.128-7.591-2.827-12.946L2032.929,989.057z"/>
<path style="fill:#1A2345;" d="M1105.905,1915.206c-2.522,9.888-9.299,19.11-14.476,27.911l-22.825,39.094l-81.999,143.022
	c-12.495,22.114-27.255,43.875-37.515,67.146l127.603,115.207L954.22,2382.67l7.896,8.982
	c21.806,27.615,39.993,59.013,59.692,88.207l118.77,174.375l97.204,140.561c15.275,22.181,33.492,44.655,45.882,68.511l0.6,1.737
	l-159.818-0.023l-316.196-0.229l-224.341,0.246l-114.835-0.132c-8.177-0.343-16.084-1.131-23.763-4.16
	c-20.455-8.071-35.798-21.334-44.186-41.918c-4.359-10.696-5.244-23.467-4.116-34.89c1.588-16.113,6.416-32.505,9.949-48.304
	l16.652-77.778l44.546-210.765c10.456-49.699,17.818-104.086,37.518-151.125c19.163-45.756,49.849-87.308,88.734-118.21
	c36.94-29.356,82.096-47.722,124.037-68.751l178.94-89.566l119.259-60.185C1045.879,1944.189,1075.574,1927.809,1105.905,1915.206z"
	/>
<path style="fill:#1F182A;" d="M962.116,2391.652c21.806,27.615,39.993,59.013,59.692,88.207l118.77,174.375l97.204,140.561
	c15.275,22.181,33.492,44.655,45.882,68.511l-40.403,0.445c-3.246-2.678-5.59-7.462-7.925-11.01l-13.978-20.361l-73.401-104.106
	l-118.143-161.452l-108.832-150.363L962.116,2391.652z"/>
<path style="fill:#30282D;" d="M901.442,935.093c-1.301-23.604-6.056-47.312-8.813-70.834l-9.765-107.361
	c-2.279-32.209-4.69-64.371-2.892-96.677c1.875-33.65,9.445-66.357,19.444-98.452c31.444-100.937,94.427-194.95,173.244-264.984
	c118.172-105.004,272.376-158.515,430.002-149.121c98.886,5.894,196.632,38.128,277.77,95.059
	c13.655,9.581,26.373,19.985,38.941,30.943c6.029,5.255,15.627,16.435,22.45,19.872c3.056,1.538,12.044,1.679,15.855,2.235
	c9.601,1.4,18.645,3.416,28.031,5.88c57.999,15.22,104.309,48.103,143.622,92.792c20.2,22.963,35.467,48.844,49.061,76.108
	c44.874,90.012,56.481,187.787,49.442,287.18c-3.648,51.495-14.118,103.769-28.632,153.287c-1.896,6.46-3.563,18.63-8.399,22.802
	l-32.206-2.021l-9.272,1.553c-4.002,5.616-5.092,12.557-6.817,19.142l-9.58,36.563l-41.962,148.743l-7.732,22.477l7.656-87.832
	c3.138-58.479,2.514-115.943-0.006-174.381c-2.977-69.056-5.004-143.596-34.231-207.366
	c-44.326-96.709-142.658-155.827-238.787-191.473l-1.755,0.319c-12.369,3.19-26.534,13.055-38.232,18.82l-54.05,23.754
	c-96.325,37.843-202.389,62.315-305.801,68.215c-14.326,0.817-32.192,3.149-46.207,0.911c21.648-14.836,42.316-31.705,61.966-49.113
	c4.248-3.765,13.392-10.084,14.842-15.255l-94.723,21.237c-32.792,6.489-67.418,11.997-98.877,23.476
	c-42.92,15.659-85.799,48.984-109.213,88.43c-21.513,36.243-28.998,76.479-33.65,117.8l-6.445,100.087l3.808,183.73l3.378,45.68
	c0.958,8.543,4.219,20.842,2.707,29.18c-1.893-3.44-3.155-6.999-4.485-10.676l-39.267-141.601
	c-4.737-15.82-7.89-32.953-11.095-49.146c-1.84-9.302-3.067-19.022-6.431-27.894C936.795,927.021,918.036,928.967,901.442,935.093z"
	/>
<path style="fill:#44393A;" d="M1435.293,198.49c67.714-2.348,145.755,7.867,204.771,43.108c14.669,8.761,28.064,20.231,41.37,30.91
	l-85.122-18.53c-122.646-20.7-246.475-12.226-364.163,28.622c-60.363,22.976-122.669,53.22-166.571,101.981
	c0.39-8.367,18.287-27.574,24.064-34.046c17.265-19.345,37.943-36.22,58.614-51.797
	C1233.303,234.656,1329.739,204.712,1435.293,198.49z"/>
<path style="fill:#1F182A;" d="M1717.868,499.225c3.741-5.101,9.372-7.802,14.312-11.607c5.499-4.239,10.62-9.085,15.721-13.787
	c30.823-28.415,52.752-58.893,72.87-95.566c93.51,29.361,160.459,90.771,205.318,176.912
	c49.726,95.482,52.899,202.802,39.53,307.492l-7.345,51.193c-0.609,6.108-1.749,12.041,0.325,17.938l-9.272,1.553
	c-4.002,5.616-5.092,12.557-6.817,19.142l-9.58,36.563l-41.962,148.743l-7.732,22.477l7.656-87.832
	c3.138-58.479,2.514-115.943-0.006-174.381c-2.977-69.056-5.004-143.596-34.231-207.366
	C1912.329,593.989,1813.997,534.871,1717.868,499.225z"/>
<path style="fill:#1F182A;" d="M954.338,927.179c-4.392-5.891-4.825-20.534-5.851-28.116
	c-7.336-54.211-10.143-108.296-4.887-162.858c12.642-131.294,79.307-244.644,180.911-327.557
	c122.353-99.841,279.205-117.972,431.28-103.005c-13.354,25.034-29.666,48.308-46.181,71.326
	c-38.312,53.411-82.193,103.655-132.094,146.57c-8.739,7.518-17.508,16.875-27.495,22.591l-1.392,0.747l-94.723,21.237
	c-32.792,6.489-67.418,11.997-98.877,23.476c-42.92,15.659-85.799,48.984-109.213,88.43c-21.513,36.243-28.998,76.479-33.65,117.8
	l-6.445,100.087l3.808,183.73l3.378,45.68c0.958,8.543,4.219,20.842,2.707,29.18c-1.893-3.44-3.155-6.999-4.485-10.676
	l-39.267-141.601c-4.737-15.82-7.89-32.953-11.095-49.146C958.928,945.771,957.701,936.051,954.338,927.179z"/>
<path style="fill:#1A2345;" d="M1885.223,1909.625l16.38,13.957l272.101,132.238l129.276,62.695
	c33.979,17.06,67.854,32.356,97.726,56.3c37.052,29.704,71.338,76.151,88.134,120.598c12.126,32.086,18.076,65.713,25.321,99.135
	l33.311,156.955l31.605,148.518c6.17,28.696,14.751,58.225,17.537,87.442c1.087,11.405-1.104,22.582-5.636,33.073
	c-2.212,5.121-4.861,9.829-7.893,14.496l-1.175,1.831c-8.807,13.342-25.682,23.628-41.136,26.877
	c-21.39,4.497-48.492,1.512-70.424,1.514l-146.722-0.096l-575.142,0.05l-37.119-0.1l-79.916,0.094
	c-10.011-0.003-25.629,2.016-34.602-1.553l31.799-107.769l215.066-719.784c3.984-8.61,6.205-18.897,9.018-28.02l14.267-46.406
	L1885.223,1909.625z"/>
<path style="fill:#1F182A;" d="M2034.359,2394.146l41.394,24.158l-327.267,446.904l-37.119-0.1
	c6.144-12.334,14.584-23.854,22.198-35.332l52.986-77.323L2034.359,2394.146z"/>
<path style="fill:#29395E;" d="M1885.223,1909.625l16.38,13.957c1.233,6.563,4.998,11.233,8.3,16.904l17.291,30.246l130.444,231.469
	l-133.236,96.366l125.092,75.639l-15.135,19.939l-247.808,358.307l-52.986,77.323c-7.614,11.479-16.055,22.998-22.198,35.332
	l-79.916,0.094c-10.011-0.003-25.629,2.016-34.602-1.553l31.799-107.769l215.066-719.784c3.984-8.61,6.205-18.897,9.018-28.02
	l14.267-46.406L1885.223,1909.625z"/>
<path style="fill:#29395E;" d="M1504.906,1963.132l224.115-206.695l156.202,153.188l-18.226,52.046l-14.267,46.406
	c-2.813,9.123-5.033,19.409-9.018,28.02l-215.066,719.784l-31.799,107.769c-0.788,0.674-1.392,1.661-2.364,2.022
	c-3.841,1.424-14.262,0.234-19.031,0.307l-76.568,0.557l-98.476-1.128l-116.145-0.363l-0.6-1.737
	c-12.39-23.856-30.607-46.33-45.882-68.511l-97.204-140.561l-118.77-174.375c-19.699-29.195-37.887-60.592-59.692-88.207
	l-7.896-8.982l122.473-75.085l-127.603-115.207c10.26-23.271,25.02-45.032,37.515-67.146l81.999-143.022l22.825-39.094
	c5.177-8.801,11.953-18.023,14.476-27.911c2.253-1.767,5.109-3.191,7.564-4.699c5.675-7.034,13.304-13.28,19.837-19.559
	l35.625-34.494l100.591-99.662l86.312,81.337c45.044,42.463,90.026,87.99,140.734,123.648l3.196,0.551L1504.906,1963.132z"/>
<path style="fill:#DBD7D5;" d="M1130.728,1958.064l2.194,1.723c5.956,5.004,10.444,15.243,15.009,21.82l116.816,179.915
	c31.582-21.65,59.663-52.017,87.647-78.141l20.487,30.319l37.233,54.557c5.256,7.796,10.207,17.543,16.644,24.258l7.438,0.097
	l-0.439,17.698l-60.943,557.819c-10.966-25.611-16.31-55.374-23.824-82.342l-43.497-151.652l-97.002-329.543l-50.701-164.499
	L1130.728,1958.064z"/>
<path style="fill:#FDFDFC;" d="M1269.522,1756.792l86.312,81.337c45.044,42.463,90.026,87.99,140.734,123.648l3.196,0.551
	l5.142,0.806l140.815,121.494l-18.533,27.729l-36.41,54.486c-5.719,8.563-11.704,20.804-19.731,27.047l-8.279,0.278
	c-5.783-2.224-14.068-1.198-20.317-1.221l-43.075-0.112l-65.177-0.222l-7.438-0.097c-6.437-6.715-11.388-16.462-16.644-24.258
	l-37.233-54.557l-20.487-30.319c-27.984,26.124-56.065,56.49-87.647,78.141l-116.816-179.915
	c-4.564-6.577-9.053-16.816-15.009-21.82l-2.194-1.723l-17.259-47.558c5.675-7.034,13.304-13.28,19.837-19.559l35.625-34.494
	L1269.522,1756.792z"/>
<path style="fill:#C62E57;" d="M1496.568,1961.776l3.196,0.551l5.142,0.806l140.815,121.494l-18.533,27.729l-36.41,54.486
	c-5.719,8.563-11.704,20.804-19.731,27.047l-8.279,0.278c-5.783-2.224-14.068-1.198-20.317-1.221l-43.075-0.112l-65.177-0.222
	l-7.438-0.097c-6.437-6.715-11.388-16.462-16.644-24.258l-37.233-54.557l-20.487-30.319L1496.568,1961.776z"/>
<path style="fill:#AB2447;" d="M1499.764,1962.327l5.142,0.806l140.815,121.494l-18.533,27.729l-36.41,54.486
	c-5.719,8.563-11.704,20.804-19.731,27.047l-8.279,0.278c-5.783-2.224-14.068-1.198-20.317-1.221l-43.075-0.112L1499.764,1962.327z"
	/>
<path style="fill:#C62E57;" d="M1434.198,2192.612l65.177,0.222l43.075,0.112c6.249,0.023,14.534-1.002,20.317,1.221l1.805,16.465
	l18.738,162.343l21.818,192.821l13.482,117.817c2.713,23.76,4.271,49.066,10.037,72.267l-31.799,107.769
	c-0.788,0.674-1.392,1.661-2.364,2.022c-3.841,1.424-14.262,0.234-19.031,0.307l-76.568,0.557l-98.476-1.128l-27.595-97.277
	l60.943-557.819L1434.198,2192.612z"/>
<path style="fill:#620F12;" d="M1434.198,2192.612l65.177,0.222l43.075,0.112c6.249,0.023,14.534-1.002,20.317,1.221l1.805,16.465
	l-64.526-0.325l-66.287,0.003L1434.198,2192.612z"/>
<path style="fill:#AB2447;" d="M1500.045,2210.307l64.526,0.325l18.738,162.343l21.818,192.821l13.482,117.817
	c2.713,23.76,4.271,49.066,10.037,72.267l-31.799,107.769c-0.788,0.674-1.392,1.661-2.364,2.022
	c-3.841,1.424-14.262,0.234-19.031,0.307l-76.568,0.557L1500.045,2210.307z"/>
<path style="fill:#DBD7D5;" d="M1504.906,1963.132l224.115-206.695l156.202,153.188l-18.226,52.046l-14.267,46.406
	c-2.813,9.123-5.033,19.409-9.018,28.02l-215.066,719.784c-5.766-23.2-7.324-48.507-10.037-72.267l-13.482-117.817l-21.818-192.821
	l-18.738-162.343l-1.805-16.465l8.279-0.278c8.027-6.243,14.013-18.483,19.731-27.047l36.41-54.486l18.533-27.729L1504.906,1963.132
	z"/>
<path style="fill:#FDFDFC;" d="M1504.906,1963.132l224.115-206.695l156.202,153.188l-18.226,52.046l-0.908,1.028
	c-6.885,7.975-12.032,18.366-18.305,27.029l-73.494,112.658c-12.677,20.982-24.973,44.106-39.038,64.026l-55.881-50.962
	c-10.989-10.131-21.653-22.049-33.65-30.823L1504.906,1963.132z"/>
<path style="fill:#F6C69F;" d="M1348.63,546.876c-1.45,5.171-10.594,11.49-14.842,15.255c-19.65,17.408-40.318,34.277-61.966,49.113
	c14.016,2.238,31.881-0.094,46.207-0.911c103.412-5.9,209.476-30.372,305.801-68.215l54.05-23.754
	c11.698-5.766,25.863-15.63,38.232-18.82l1.755-0.319c96.129,35.646,194.461,94.764,238.787,191.473
	c29.227,63.771,31.254,138.311,34.231,207.366c2.52,58.438,3.144,115.901,0.006,174.381l-7.656,87.832l7.732-22.477
	c3.955,5.356,3.814,6.557,2.827,12.946l-34.986,156.718c-35.986,109.67-100.049,215.247-184.629,294.123
	c-14.054,13.104-28.386,26.921-44.039,38.115l-1.026,59.877c0.12,17.813,2.675,39.495-0.094,56.857l-224.115,206.695l-5.142-0.806
	l-3.196-0.551c-50.707-35.657-95.69-81.185-140.734-123.648l-86.312-81.337c1.635-4.254,1.45-9.481,1.743-14.045
	c-2.379-8.018-0.586-22.629-0.577-31.313l0.179-83.007c-25.939-21.035-50.393-44.054-74.098-67.565
	c-33.712-33.434-65.063-67.784-90.264-108.29c-17.971-28.884-32.051-60.193-44.262-91.881
	c-9.012-23.388-17.912-48.167-22.817-72.771l-6.519,3.276c-22.207,9.363-57.97-3.208-79.113-12.27
	c-58.061-24.882-106.896-73.137-129.97-132.214c-16.617-42.548-25.043-91.342-5.798-134.531
	c16.143-36.226,46.723-62.871,83.414-77.089c16.594-6.126,35.353-8.071,52.896-7.913c3.363,8.871,4.591,18.592,6.431,27.894
	c3.205,16.192,6.358,33.325,11.095,49.146l39.267,141.601c1.33,3.677,2.593,7.236,4.485,10.676
	c1.512-8.338-1.749-20.637-2.707-29.18l-3.378-45.68l-3.808-183.73l6.445-100.087c4.652-41.32,12.138-81.557,33.65-117.8
	c23.414-39.445,66.293-72.771,109.213-88.43c31.459-11.479,66.085-16.986,98.877-23.476L1348.63,546.876z"/>
<linearGradient id="SVGID_1_" gradientUnits="userSpaceOnUse" x1="775.5035" y1="2055.6704" x2="782.6072" y2="2032.7745" gradientTransform="matrix(2.9297 0 0 -2.9297 -1043.8945 6940.4292)">
	<stop  offset="0" style="stop-color:#1F1831"/>
	<stop  offset="1" style="stop-color:#2A2558"/>
</linearGradient>
<path style="fill:url(#SVGID_1_);" d="M1148.957,998.649c-0.384-14.35,9.82-32.921,18.129-44.373
	c17.408-23.994,41.136-34.91,69.99-39.223c26.836-4.008,58.099,2.112,80.121,18.545c17.276,12.888,33.179,33.138,36.158,54.929
	c-14.971-27.384-35.429-46.482-65.757-55.313c-29.886-8.698-64.632-4.169-91.746,11.068
	C1174.483,956.289,1158.273,976.263,1148.957,998.649z"/>
<path style="fill:#1A2345;" d="M1654.314,984.713c0.111-14.602,13.521-31.482,23.681-41.376
	c23.361-22.752,51.425-30.161,83.461-29.37c27.117,0.668,56.2,13.764,74.716,33.688c11.461,12.331,21.692,31.412,22.579,48.44
	c0.082,1.57-0.19,2.159-0.595,3.507l-5.426-4.523l-0.721-2.35c-8.355-21.908-27.917-41.526-48.609-51.823
	c-28.585-14.23-59.751-16.248-89.897-5.722C1688.404,943.949,1666.05,960.323,1654.314,984.713z"/>
<path style="fill:#DE9B7A;" d="M1599.76,1261.337l0.879,2.092l-4.383,4.582c-20.241,21.029-42.949,37.714-69.879,49.28
	c-10.055,4.321-22.632,8.423-33.7,8.227c-22.509-0.398-43.025-13.427-58.559-28.632l-18.475-25.591
	c20.024,7.831,36.656,13.438,57.99,16.764C1515.748,1294.621,1562.503,1280.336,1599.76,1261.337z"/>
<path style="fill:#DE9B7A;" d="M1404.684,1479.971c60.068,11.985,125.748,9.167,186.076-0.519l-21.548,18.99l-11.11,7.931
	c-23.25,16.444-46.632,29.066-76.154,23.552l-1.723-0.354c-17.892-3.536-32.988-13.216-47.607-23.607
	C1422.23,1498.577,1413.593,1489.035,1404.684,1479.971z"/>
<path style="fill:#AD695E;" d="M1323.276,1408.451c25.462,5.663,51.056,12.243,76.837,16.254
	c98.113,15.261,192.056,4.676,288.774-14.112l-18.144,8.874c-21.961,9.56-45.111,16.146-68.203,22.359
	c-41.71,11.227-86.49,20.226-129.879,14.704C1421.468,1450.015,1367.828,1435.132,1323.276,1408.451z"/>
<path style="fill:#DBD7D5;" d="M1485.209,1071.886c-1.356,12.996-5.089,25.811-7.292,38.692c-2.546,14.889-3.765,31.424-4.45,46.544
	c-0.483,10.641-0.533,21.472,0.217,32.101c1.066,15.188,3.237,29.953,3.091,45.24c-0.047,4.74,0.384,9.99-1.881,14.317
	c-3.272,6.255-9.396,10.409-16.143,12.191c-10.775,2.845-18.352,1.488-28.04-3.768c-5.039-4.808-8.968-9.525-11.115-16.269
	c-3.902-12.261,0.023-26.968,3.366-38.956C1435.967,1155.388,1462.525,1114.167,1485.209,1071.886z"/>
<path style="fill:#1A2345;" d="M1709.383,787.237l52.333,1.354c33.232,0.935,60.779,1.195,91.409,16.333
	c36.48,18.026,61.904,46.708,74.909,85.023c-22.928-13.749-41.511-25.151-68.792-27.826c-16.532-2.833-36.281-1.046-53.048-0.252
	l-66.044,3.035l-119.162,2.496c1.195-11.446,3.167-24.697,8.247-35.077c9.088-18.577,25.395-33.381,45.15-39.873
	C1685.746,788.716,1697.53,788.013,1709.383,787.237z"/>
<path style="fill:#1A2345;" d="M1220.395,788.684l3.592-0.366c18.524-1.257,37.761-0.366,56.361-0.413
	c12.97-0.032,28.342-1.544,41.054,1.125c13.708,2.877,26.177,8.821,36.753,18.053c18.472,16.119,25.043,37.102,26.862,60.926
	l-167.365-5.127c-29.452-0.22-66.024-6.41-94.345,1.983c-18.85,5.584-35.435,15.879-52.298,25.729
	c7.037-14.745,14.508-28.948,24.826-41.695C1126.955,810.469,1172.556,793.896,1220.395,788.684z"/>
<path style="fill:#DE9B7A;" d="M1037.632,1282.668c-4.184-2.402-7.395-5.827-11.508-8.212c-12.182-7.057-25.5-12.1-37.682-19.266
	c-42.718-25.14-93.059-67.415-113.048-113.543c-8.098-18.686-10.245-42.785-5.388-62.607c5.156-21.032,16.72-41.915,36.067-53.153
	c21.943-12.747,40.998-17.162,65.789-21.668l39.267,141.601c-4.251,7.978,1.023,25.09,2.786,34.019L1037.632,1282.668z"/>
<path style="fill:#FDFDFC;" d="M1654.314,984.713c11.736-24.39,34.09-40.764,59.189-49.529c30.146-10.526,61.313-8.508,89.897,5.722
	c20.692,10.298,40.254,29.915,48.609,51.823l0.721,2.35c-0.114,16.477-1.107,31.957-8.159,47.145
	c-11.581,24.946-35.473,45.085-61.336,54.079c-26.411,9.188-56.449,6.088-81.27-6.293c-21.879-10.913-40.313-30.413-48.012-53.868
	l-0.589-1.857c-3.847-11.786-5.08-25.225-2.429-37.456c0.794-3.659,2.496-6.917,3.167-10.579L1654.314,984.713z"/>
<path style="fill:#1F182A;" d="M1750.074,946.867c9.859,0.422,18.481,1.945,27.278,6.659c13.893,7.444,24.735,19.597,28.945,34.981
	c4.421,16.151,1.063,34.365-7.351,48.688c-9.762,16.623-25.21,23.578-43.236,28.087c-13.775,0-24.015-0.853-36.015-8.663
	c-11.889-7.737-22.957-21.39-24.993-35.681c-2.669-18.765,3.621-40.474,15.691-54.911
	C1721.266,953.022,1733.887,948.584,1750.074,946.867z"/>
<path style="fill:#FDFDFC;" d="M1717.742,984.388c8.259-0.759,14.341-0.217,20.936,5.115c1.849,3.433,3.155,6.082,2.716,10.081
	c-0.771,7.028-5.528,10.693-10.72,14.833c-2.373,0.369-4.875,0.773-7.283,0.627c-4.321-0.258-8.13-2.675-10.975-5.804
	c-4.046-4.447-4.33-8.848-4.151-14.61C1710.406,989.289,1713.039,987.54,1717.742,984.388z"/>
<path style="fill:#FDFDFC;" d="M1148.957,998.649c9.316-22.386,25.526-42.36,46.896-54.366
	c27.114-15.237,61.86-19.767,91.746-11.068c30.328,8.83,50.786,27.929,65.757,55.313l0.199,2.265
	c0.413,4.14,2.168,7.796,2.798,11.895c3.258,21.252-5.036,43.934-18.085,60.56c-12.785,16.289-32.162,29.944-52.134,35.581
	l-2.613,0.753c-26.704,7.468-56.517,4.5-80.575-9.542c-24.642-14.382-45.53-38.232-52.72-66.269
	C1148.099,1015.474,1147.726,1007.137,1148.957,998.649z"/>
<path style="fill:#1F182A;" d="M1247.65,946.641c12.914-1.632,24.753-0.946,36.433,5.388c14.818,8.033,25.166,20.739,29.689,37.119
	c3.788,13.714,2.054,33.647-5.139,45.817c-9.185,15.53-22.796,22.781-39.539,27.516c-12.527,2.156-25.125,1.216-36.56-4.714
	c-13.995-7.257-25.195-20.361-29.581-35.619c-4.318-15.015-3.621-32.965,4.187-46.732
	C1216.396,959.104,1230.124,951.399,1247.65,946.641z"/>
<path style="fill:#FDFDFC;" d="M1218.543,974.172l11.194,0.363c4.884,0.694,10.295,4.38,12.832,8.563
	c3.208,5.288,4.289,10.523,2.519,16.503c-2.065,6.979-6.343,10.061-12.542,13.269c-2.795,0.313-5.511,0.633-8.326,0.463
	c-5.909-0.357-12.267-1.834-16.011-6.829c-3.694-4.931-5.022-11.013-3.554-16.989
	C1206.549,981.801,1212.112,978.059,1218.543,974.172z"/>
<path style="fill:#D38D73;" d="M1270.867,1628.427c64.421,49.131,129.252,89.924,211.231,100.778
	c26.183,3.469,54.056-0.644,79.462-7.066c61.034-15.422,117.516-46.064,168.58-82.436l-1.026,59.877
	c0.12,17.813,2.675,39.495-0.094,56.857l-224.115,206.695l-5.142-0.806l-3.196-0.551c-50.707-35.657-95.69-81.185-140.734-123.648
	l-86.312-81.337c1.635-4.254,1.45-9.481,1.743-14.045c-2.379-8.018-0.586-22.629-0.577-31.313L1270.867,1628.427z"/>
<path style="fill:#DE9B7A;" d="M1729.115,1699.58c0.12,17.813,2.675,39.495-0.094,56.857l-224.115,206.695l-5.142-0.806
	l-3.196-0.551c-50.707-35.657-95.69-81.185-140.734-123.648l-86.312-81.337c1.635-4.254,1.45-9.481,1.743-14.045
	c2.153-9.882,0.706-22.717,0.765-32.956c21.15,12.817,40.512,29.742,60.24,44.681c18.023,13.649,37.072,25.869,56.379,37.608
	c27.202,16.538,57.855,33.091,89.537,38.537c35.707,6.138,67.535-3.932,99.044-20.133c34.283-17.628,64.585-39.012,94.157-63.656
	c18.486-15.404,36.199-31.957,55.84-45.917L1729.115,1699.58z"/>
</svg>
